<?xml version="1.0" encoding="UTF-8"?>
<!DOCTYPE svg PUBLIC "-//W3C//DTD SVG 1.1//EN" "http://www.w3.org/Graphics/SVG/1.1/DTD/svg11.dtd">
<svg xmlns="http://www.w3.org/2000/svg" version="1.1" width="217px" height="232px" style="shape-rendering:geometricPrecision; text-rendering:geometricPrecision; image-rendering:optimizeQuality; fill-rule:evenodd; clip-rule:evenodd" xmlns:xlink="http://www.w3.org/1999/xlink">
<g><path style="opacity:1" fill="#f6f6f6" d="M -0.5,-0.5 C 71.8333,-0.5 144.167,-0.5 216.5,-0.5C 216.5,76.8333 216.5,154.167 216.5,231.5C 144.167,231.5 71.8333,231.5 -0.5,231.5C -0.5,154.167 -0.5,76.8333 -0.5,-0.5 Z"/></g>
<g><path style="opacity:1" fill="#52a5e2" d="M 112.5,64.5 C 104.086,79.6635 95.4193,94.6635 86.5,109.5C 91.0452,93.2017 95.3786,76.8683 99.5,60.5C 100.099,55.9786 101.766,51.9786 104.5,48.5C 107.721,53.6077 110.387,58.941 112.5,64.5 Z"/></g>
<g><path style="opacity:1" fill="#1778d8" d="M 112.5,64.5 C 114.038,67.8995 115.871,71.2328 118,74.5C 118.991,76.4473 119.325,78.4473 119,80.5C 106.283,97.0437 93.7833,113.71 81.5,130.5C 80.9569,130.44 80.6236,130.107 80.5,129.5C 82.0475,124.862 83.3808,120.195 84.5,115.5C 84.9707,113.421 85.6373,111.421 86.5,109.5C 95.4193,94.6635 104.086,79.6635 112.5,64.5 Z"/></g>
<g><path style="opacity:1" fill="#71c3e7" d="M 99.5,60.5 C 95.3786,76.8683 91.0452,93.2017 86.5,109.5C 85.6373,111.421 84.9707,113.421 84.5,115.5C 78.9981,123.832 73.9981,132.499 69.5,141.5C 69.5,142.167 69.1667,142.5 68.5,142.5C 67.8333,142.5 67.1667,142.5 66.5,142.5C 76.7465,114.738 87.7465,87.4048 99.5,60.5 Z"/></g>
<g><path style="opacity:1" fill="#6cc1e6" d="M 123.5,87.5 C 122.666,95.6649 122.666,103.998 123.5,112.5C 120.193,108.574 117.36,104.24 115,99.5C 114.184,98.1772 113.017,97.5106 111.5,97.5C 114.809,93.1853 118.143,88.852 121.5,84.5C 122.919,85.0047 123.585,86.0047 123.5,87.5 Z"/></g>
<g><path style="opacity:1" fill="#54a5e2" d="M 123.5,87.5 C 134.048,110.597 144.048,133.93 153.5,157.5C 143.863,143.678 134.363,129.678 125,115.5C 124.517,116.448 124.351,117.448 124.5,118.5C 123.539,116.735 123.205,114.735 123.5,112.5C 122.666,103.998 122.666,95.6649 123.5,87.5 Z"/></g>
<g><path style="opacity:1" fill="#1979d8" d="M 153.5,157.5 C 154.303,158.423 154.47,159.423 154,160.5C 144.951,150.415 135.451,140.748 125.5,131.5C 124.92,127.19 124.586,122.857 124.5,118.5C 124.351,117.448 124.517,116.448 125,115.5C 134.363,129.678 143.863,143.678 153.5,157.5 Z"/></g>
<g><path style="opacity:1" fill="#1fa4e0" d="M 111.5,97.5 C 113.017,97.5106 114.184,98.1772 115,99.5C 117.36,104.24 120.193,108.574 123.5,112.5C 123.205,114.735 123.539,116.735 124.5,118.5C 124.586,122.857 124.92,127.19 125.5,131.5C 124.391,131.557 123.391,131.89 122.5,132.5C 122.265,131.903 121.765,131.57 121,131.5C 103.996,135.688 86.8292,139.021 69.5,141.5C 73.9981,132.499 78.9981,123.832 84.5,115.5C 83.3808,120.195 82.0475,124.862 80.5,129.5C 80.6236,130.107 80.9569,130.44 81.5,130.5C 81.3893,131.117 81.056,131.617 80.5,132C 95.207,132.259 109.874,131.592 124.5,130C 117.319,122.986 110.319,115.819 103.5,108.5C 106.191,104.815 108.858,101.148 111.5,97.5 Z"/></g>
<g><path style="opacity:1" fill="#1879d8" d="M 122.5,132.5 C 101.167,141.603 80.1669,151.27 59.5,161.5C 58.9053,158.934 59.572,156.601 61.5,154.5C 64.3346,150.836 66.668,146.836 68.5,142.5C 69.1667,142.5 69.5,142.167 69.5,141.5C 86.8292,139.021 103.996,135.688 121,131.5C 121.765,131.57 122.265,131.903 122.5,132.5 Z"/></g>
<g><path style="opacity:1" fill="#57a5e2" d="M 66.5,142.5 C 67.1667,142.5 67.8333,142.5 68.5,142.5C 66.668,146.836 64.3346,150.836 61.5,154.5C 62.4025,150.111 64.0692,146.111 66.5,142.5 Z"/></g>
</svg>
